<svg xmlns="http://www.w3.org/2000/svg" xmlns:xlink="http://www.w3.org/1999/xlink" width="146.044" height="56.579" viewBox="0 0 146.044 56.579">
  <defs>
    <clipPath id="clip-path">
      <path id="Path_530" data-name="Path 530" d="M0-69.12H146.044V-125.7H0Z" transform="translate(0 125.699)" fill="none"/>
    </clipPath>
  </defs>
  <g id="Group_380" data-name="Group 380" transform="translate(0 125.699)">
    <g id="Group_379" data-name="Group 379" transform="translate(0 -125.699)" clip-path="url(#clip-path)">
      <g id="Group_360" data-name="Group 360" transform="translate(67.121 22.132)">
        <path id="Path_509" data-name="Path 509" d="M-3.443-16.421A3.983,3.983,0,0,1-5.38-17.9a5.633,5.633,0,0,1-.882-2.78h2.416a3.94,3.94,0,0,0,.518,1.764,2.385,2.385,0,0,0,1.169.968,4.945,4.945,0,0,0,1.822.3,4.265,4.265,0,0,0,2.359-.537,1.734,1.734,0,0,0,.805-1.534,1.514,1.514,0,0,0-.479-1.17,3.082,3.082,0,0,0-1.2-.662Q.43-21.771-.8-22.04A19.5,19.5,0,0,1-3.463-22.7a4.155,4.155,0,0,1-1.764-1.16,3.2,3.2,0,0,1-.729-2.224,3.543,3.543,0,0,1,.546-1.985,3.6,3.6,0,0,1,1.745-1.313,8.32,8.32,0,0,1,3.059-.479,8.495,8.495,0,0,1,2.914.432,3.769,3.769,0,0,1,1.86,1.448,5.32,5.32,0,0,1,.786,2.723H2.635a4.764,4.764,0,0,0-.441-1.706,1.976,1.976,0,0,0-.978-.9,4.511,4.511,0,0,0-1.783-.288,5.415,5.415,0,0,0-1.726.23,1.977,1.977,0,0,0-.978.642,1.641,1.641,0,0,0-.307,1.007,1.436,1.436,0,0,0,.46,1.112,2.938,2.938,0,0,0,1.17.633q.71.211,1.9.46a27.4,27.4,0,0,1,2.7.709,4.045,4.045,0,0,1,1.783,1.2,3.414,3.414,0,0,1,.748,2.33A3.66,3.66,0,0,1,4.639-17.8a3.617,3.617,0,0,1-1.783,1.332,9.049,9.049,0,0,1-3.269.489,8.928,8.928,0,0,1-3.03-.441" transform="translate(6.262 29.863)" fill="#8d4931"/>
      </g>
      <g id="Group_361" data-name="Group 361" transform="translate(79.22 21.768)">
        <path id="Path_510" data-name="Path 510" d="M-1.991-.7.272-1.278V12.739H-1.991Zm-1.63,2.282h6.1V3.266h-6.1Z" transform="translate(3.621 1.278)" fill="#8d4931"/>
      </g>
      <g id="Group_362" data-name="Group 362" transform="translate(85.567 24.395)">
        <path id="Path_511" data-name="Path 511" d="M-1.827-13.727a2.345,2.345,0,0,1-1.122-.959,2.886,2.886,0,0,1-.374-1.5,2.5,2.5,0,0,1,.489-1.563,4.69,4.69,0,0,1,1.6-1.218,22.521,22.521,0,0,1,3.144-1.246l3.068-.978L5-19.767l-2.742.882A14.151,14.151,0,0,0,.2-18.08a2.713,2.713,0,0,0-.978.757,1.6,1.6,0,0,0-.278.949,1.239,1.239,0,0,0,.479,1.065,2.41,2.41,0,0,0,1.438.355,3.6,3.6,0,0,0,1.994-.556,3.7,3.7,0,0,0,1.323-1.467,4.219,4.219,0,0,0,.46-1.927v-2.071A3.184,3.184,0,0,0,4.366-22.4a1.61,1.61,0,0,0-.825-.767,3.839,3.839,0,0,0-1.5-.24,2.867,2.867,0,0,0-2.157.729,4.135,4.135,0,0,0-.873,2.473H-3.093a6.431,6.431,0,0,1,.777-2.713A3.787,3.787,0,0,1-.6-24.465a6.725,6.725,0,0,1,2.78-.5,7,7,0,0,1,2.694.441,3,3,0,0,1,1.524,1.3,4.331,4.331,0,0,1,.479,2.129v4.141l.135,3.375H4.846v-4.813l.019-.058a8.129,8.129,0,0,1-.681,2.608,4.113,4.113,0,0,1-1.563,1.783A4.774,4.774,0,0,1,.033-13.4a4.661,4.661,0,0,1-1.86-.326" transform="translate(3.323 24.964)" fill="#8d4931"/>
      </g>
      <g id="Group_363" data-name="Group 363" transform="translate(96.918 24.414)">
        <path id="Path_512" data-name="Path 512" d="M-3.162-13.7a3.661,3.661,0,0,1-1.716-1.266,5.05,5.05,0,0,1-.872-2.339h2.167a3.648,3.648,0,0,0,.451,1.448,1.837,1.837,0,0,0,.959.776,4.9,4.9,0,0,0,1.659.23,4.022,4.022,0,0,0,2.052-.4,1.309,1.309,0,0,0,.652-1.189,1.14,1.14,0,0,0-.412-.92A2.82,2.82,0,0,0,.73-17.893Q.1-18.076-.957-18.267a21.326,21.326,0,0,1-2.387-.614,3.912,3.912,0,0,1-1.563-.968,2.5,2.5,0,0,1-.652-1.832,2.807,2.807,0,0,1,.518-1.668A3.419,3.419,0,0,1-3.459-24.5a7.186,7.186,0,0,1,2.636-.422,6.028,6.028,0,0,1,3.423.882A4.039,4.039,0,0,1,4.182-20.99H2.034a3.673,3.673,0,0,0-.46-1.4,1.894,1.894,0,0,0-.911-.757,3.944,3.944,0,0,0-1.486-.24,3.286,3.286,0,0,0-1.889.422A1.327,1.327,0,0,0-3.3-21.834a1.035,1.035,0,0,0,.383.824,2.615,2.615,0,0,0,.978.5q.595.173,1.649.364a19.625,19.625,0,0,1,2.464.6,4.028,4.028,0,0,1,1.62,1,2.575,2.575,0,0,1,.671,1.889,2.931,2.931,0,0,1-.546,1.793,3.455,3.455,0,0,1-1.668,1.141,8.33,8.33,0,0,1-2.79.4A7.757,7.757,0,0,1-3.162-13.7" transform="translate(5.751 24.921)" fill="#8d4931"/>
      </g>
      <path id="Path_513" data-name="Path 513" d="M239.621-77.892h2.435V-76.2h-2.435Zm-.1,15.809a17.707,17.707,0,0,0,.192-2.943v-9.76h2.263v9.856a16.379,16.379,0,0,1-.2,2.914,6.2,6.2,0,0,1-.738,1.975h-2.205a7.061,7.061,0,0,0,.69-2.042" transform="translate(-131.333 99.41)" fill="#8d4931"/>
      <g id="Group_364" data-name="Group 364" transform="translate(111.951 24.414)">
        <path id="Path_514" data-name="Path 514" d="M-8.9-11.631a2.65,2.65,0,0,0,1.093-1.333,6.388,6.388,0,0,0,.383-2.416,6.253,6.253,0,0,0-.383-2.387,2.585,2.585,0,0,0-1.1-1.313,3.5,3.5,0,0,0-1.736-.4,3.532,3.532,0,0,0-1.764.4A2.6,2.6,0,0,0-13.5-17.757a6.233,6.233,0,0,0-.383,2.378,6.353,6.353,0,0,0,.383,2.416,2.634,2.634,0,0,0,1.1,1.333,3.475,3.475,0,0,0,1.755.412A3.421,3.421,0,0,0-8.9-11.631m-4.784,1.438A4.217,4.217,0,0,1-15.555-12.1a7.342,7.342,0,0,1-.633-3.279,7.307,7.307,0,0,1,.633-3.25,4.106,4.106,0,0,1,1.869-1.9,6.707,6.707,0,0,1,3.039-.623,6.658,6.658,0,0,1,3.02.623,4.158,4.158,0,0,1,1.879,1.9,7.215,7.215,0,0,1,.642,3.25A7.249,7.249,0,0,1-5.747-12.1a4.272,4.272,0,0,1-1.879,1.908,6.493,6.493,0,0,1-3.02.642,6.54,6.54,0,0,1-3.039-.642" transform="translate(16.188 21.151)" fill="#8d4931"/>
      </g>
      <g id="Group_365" data-name="Group 365" transform="translate(124.299 24.433)">
        <path id="Path_515" data-name="Path 515" d="M-9.663-3.233a1.468,1.468,0,0,0-.786-.729,3.787,3.787,0,0,0-1.448-.23,3.759,3.759,0,0,0-1.8.393,2.687,2.687,0,0,0-1.15,1.371,7.65,7.65,0,0,0-.479,2.7h-.345a10.5,10.5,0,0,1,.652-3.663,3.78,3.78,0,0,1,1.592-1.927,5.017,5.017,0,0,1,2.473-.566,3.905,3.905,0,0,1,2.848.92,3.587,3.587,0,0,1,.93,2.665V5.472H-9.424v-7.4a3.026,3.026,0,0,0-.239-1.3m-7.91-2.454h1.956l.134,4.621h.172V5.472h-2.263Z" transform="translate(17.573 5.879)" fill="#8d4931"/>
      </g>
      <g id="Group_366" data-name="Group 366" transform="translate(135.804 24.414)">
        <path id="Path_516" data-name="Path 516" d="M-3.162-13.7a3.661,3.661,0,0,1-1.716-1.266,5.05,5.05,0,0,1-.872-2.339h2.167a3.648,3.648,0,0,0,.451,1.448,1.837,1.837,0,0,0,.959.776,4.9,4.9,0,0,0,1.659.23,4.022,4.022,0,0,0,2.052-.4,1.309,1.309,0,0,0,.652-1.189,1.14,1.14,0,0,0-.412-.92A2.82,2.82,0,0,0,.73-17.893Q.1-18.076-.957-18.267a21.326,21.326,0,0,1-2.387-.614,3.912,3.912,0,0,1-1.563-.968,2.5,2.5,0,0,1-.652-1.832,2.807,2.807,0,0,1,.518-1.668A3.416,3.416,0,0,1-3.459-24.5a7.186,7.186,0,0,1,2.636-.422,6.028,6.028,0,0,1,3.423.882A4.039,4.039,0,0,1,4.182-20.99H2.034a3.673,3.673,0,0,0-.46-1.4,1.894,1.894,0,0,0-.911-.757,3.942,3.942,0,0,0-1.486-.24,3.286,3.286,0,0,0-1.889.422A1.327,1.327,0,0,0-3.3-21.834a1.035,1.035,0,0,0,.383.824,2.615,2.615,0,0,0,.978.5q.595.173,1.649.364a19.625,19.625,0,0,1,2.464.6,4.028,4.028,0,0,1,1.62,1,2.575,2.575,0,0,1,.671,1.889,2.931,2.931,0,0,1-.546,1.793,3.454,3.454,0,0,1-1.669,1.141,8.326,8.326,0,0,1-2.79.4A7.757,7.757,0,0,1-3.162-13.7" transform="translate(5.751 24.921)" fill="#8d4931"/>
      </g>
      <g id="Group_367" data-name="Group 367" transform="translate(67.696 41.518)">
        <path id="Path_517" data-name="Path 517" d="M-3.28-9.112h-.556v-1.17h.441l.786-1.361A30.147,30.147,0,0,1-.461-14.807a4.744,4.744,0,0,1,1.687-1.371,5.7,5.7,0,0,1,2.3-.393h.767v1.936H3.125a2.481,2.481,0,0,0-1.189.259,3.446,3.446,0,0,0-1,.911A23.013,23.013,0,0,0-.5-11.3q-.594,1-1.15,1.879l-.038-1.3L4.793-3.13H1.9Zm-2.684-7.44h2.339V-3.13H-5.964Z" transform="translate(5.964 16.571)" fill="#8d4931"/>
      </g>
      <g id="Group_368" data-name="Group 368" transform="translate(77.993 43.8)">
        <path id="Path_518" data-name="Path 518" d="M0,0H2.416L5.388,9.146H5.58L8.475,0H10.91L6.826,11.16H4.1Z" fill="#8d4931"/>
      </g>
      <g id="Group_369" data-name="Group 369" transform="translate(88.769 43.569)">
        <path id="Path_519" data-name="Path 519" d="M-1.827-13.727a2.345,2.345,0,0,1-1.122-.959,2.886,2.886,0,0,1-.374-1.5,2.506,2.506,0,0,1,.489-1.563,4.7,4.7,0,0,1,1.6-1.218,22.521,22.521,0,0,1,3.144-1.246l3.068-.978L5-19.767l-2.742.882A14.151,14.151,0,0,0,.2-18.08a2.709,2.709,0,0,0-.978.757,1.6,1.6,0,0,0-.278.949A1.238,1.238,0,0,0-.581-15.31a2.407,2.407,0,0,0,1.438.355,3.6,3.6,0,0,0,1.994-.556,3.7,3.7,0,0,0,1.323-1.467,4.219,4.219,0,0,0,.46-1.927v-2.071A3.184,3.184,0,0,0,4.366-22.4a1.608,1.608,0,0,0-.825-.767,3.839,3.839,0,0,0-1.5-.24,2.867,2.867,0,0,0-2.157.729,4.135,4.135,0,0,0-.873,2.473H-3.093a6.431,6.431,0,0,1,.777-2.713A3.787,3.787,0,0,1-.6-24.465a6.725,6.725,0,0,1,2.78-.5,7,7,0,0,1,2.694.441,3.006,3.006,0,0,1,1.524,1.3,4.331,4.331,0,0,1,.479,2.129v4.141l.135,3.375H4.846v-4.813l.019-.058a8.129,8.129,0,0,1-.681,2.608,4.113,4.113,0,0,1-1.563,1.783A4.774,4.774,0,0,1,.033-13.4a4.661,4.661,0,0,1-1.86-.326" transform="translate(3.323 24.964)" fill="#8d4931"/>
      </g>
      <g id="Group_370" data-name="Group 370" transform="translate(100.6 43.8)">
        <path id="Path_520" data-name="Path 520" d="M-2.952-3.28A4.253,4.253,0,0,1-1.773-5.312,2.635,2.635,0,0,1,0-5.964H.538v1.937H-.325a2.729,2.729,0,0,0-1.5.4,2.481,2.481,0,0,0-.959,1.342A8.011,8.011,0,0,0-3.105.268h-.268A12.4,12.4,0,0,1-2.952-3.28M-5.368-5.964h1.956l.134,4.621h.172V5.2H-5.368Z" transform="translate(5.368 5.964)" fill="#8d4931"/>
      </g>
      <g id="Group_371" data-name="Group 371" transform="translate(106.985 40.942)">
        <path id="Path_521" data-name="Path 521" d="M-1.991-.7.272-1.278V12.739H-1.991Zm-1.63,2.282h6.1V3.266h-6.1Z" transform="translate(3.621 1.278)" fill="#8d4931"/>
      </g>
      <g id="Group_372" data-name="Group 372" transform="translate(113.332 43.569)">
        <path id="Path_522" data-name="Path 522" d="M-1.827-13.727a2.345,2.345,0,0,1-1.122-.959,2.886,2.886,0,0,1-.374-1.5,2.5,2.5,0,0,1,.489-1.563,4.69,4.69,0,0,1,1.6-1.218,22.521,22.521,0,0,1,3.144-1.246l3.068-.978L5-19.767l-2.742.882A14.151,14.151,0,0,0,.2-18.08a2.709,2.709,0,0,0-.978.757,1.6,1.6,0,0,0-.278.949A1.238,1.238,0,0,0-.581-15.31a2.407,2.407,0,0,0,1.438.355,3.6,3.6,0,0,0,1.994-.556,3.7,3.7,0,0,0,1.323-1.467,4.219,4.219,0,0,0,.46-1.927v-2.071A3.184,3.184,0,0,0,4.366-22.4a1.608,1.608,0,0,0-.825-.767,3.839,3.839,0,0,0-1.5-.24,2.867,2.867,0,0,0-2.157.729,4.135,4.135,0,0,0-.873,2.473H-3.093a6.431,6.431,0,0,1,.777-2.713A3.787,3.787,0,0,1-.6-24.465a6.725,6.725,0,0,1,2.78-.5,7,7,0,0,1,2.694.441,3.006,3.006,0,0,1,1.524,1.3,4.331,4.331,0,0,1,.479,2.129v4.141l.135,3.375H4.846v-4.813l.019-.058a8.129,8.129,0,0,1-.681,2.608,4.113,4.113,0,0,1-1.563,1.783A4.774,4.774,0,0,1,.033-13.4a4.661,4.661,0,0,1-1.86-.326" transform="translate(3.323 24.964)" fill="#8d4931"/>
      </g>
      <path id="Path_523" data-name="Path 523" d="M278.07-35.974h2.263V-21.4H278.07Z" transform="translate(-152.907 76.36)" fill="#8d4931"/>
      <g id="Group_373" data-name="Group 373" transform="translate(128.748 43.589)">
        <path id="Path_524" data-name="Path 524" d="M-2.87-13.364a3.841,3.841,0,0,1-1.793-1.889,7.793,7.793,0,0,1-.556-3.164,6.341,6.341,0,0,1,1.352-4.4A5.315,5.315,0,0,1,.265-24.3a6.392,6.392,0,0,1,3,.623A3.82,3.82,0,0,1,4.992-21.9a6.5,6.5,0,0,1,.546,2.79v.92H-3.57V-19.74H3.985l-.614.748a5.627,5.627,0,0,0-.307-2,2.389,2.389,0,0,0-1-1.218,3.46,3.46,0,0,0-1.822-.422,3.161,3.161,0,0,0-2.493.93,4.1,4.1,0,0,0-.824,2.79v.575a6.223,6.223,0,0,0,.355,2.32,2.346,2.346,0,0,0,1.093,1.246,4.232,4.232,0,0,0,1.946.383,4.5,4.5,0,0,0,1.659-.259,1.947,1.947,0,0,0,.978-.825A3.553,3.553,0,0,0,3.391-16.9H5.5A5.579,5.579,0,0,1,4.647-14.5,3.672,3.672,0,0,1,2.94-13.143a7.128,7.128,0,0,1-2.617.422,6.919,6.919,0,0,1-3.193-.642" transform="translate(5.219 24.303)" fill="#8d4931"/>
      </g>
      <g id="Group_374" data-name="Group 374" transform="translate(139.946 40.942)">
        <path id="Path_525" data-name="Path 525" d="M-1.991-.7.272-1.278V12.739H-1.991Zm-1.63,2.282h6.1V3.266h-6.1Z" transform="translate(3.621 1.278)" fill="#8d4931"/>
      </g>
      <g id="Group_375" data-name="Group 375" transform="translate(0.32 0.448)">
        <path id="Path_526" data-name="Path 526" d="M-24.885,0a6.187,6.187,0,0,0-4.279,1.714h0l-.095.094-.026.027-3.6,3.6h0l-3.385,3.385c-.016.018-.033.034-.05.05l-.1.1a3.783,3.783,0,0,1-2.619,1.053,3.776,3.776,0,0,1-2.4-.857l-.188-.188A3.786,3.786,0,0,1-42.842,6.22a3.8,3.8,0,0,1,3.795-3.783,3.784,3.784,0,0,1,2.8,1.239l.011-.011,0,0,1.707-1.707A6.255,6.255,0,0,0-41.216.37a6.134,6.134,0,0,0-4.039,5.839v.023a6.2,6.2,0,0,0,2.163,4.706l3.274,3.274h0l3.4,3.4c.056.053.111.107.164.164l.025.026h0a3.792,3.792,0,0,1,.947,3.265A3.8,3.8,0,0,1-38.2,24.08a3.8,3.8,0,0,1-4.614-3.71,3.784,3.784,0,0,1,1.239-2.8l-1.707-1.707a6.209,6.209,0,0,0-1.839,5.674,6.2,6.2,0,0,0,4.85,4.922,6.221,6.221,0,0,0,7.462-6.086,6.188,6.188,0,0,0-1.714-4.279h0L-34.621,16l-.027-.027-3.581-3.581a6.2,6.2,0,0,0,3.659-1.857L-31.044,7v0l3.4-3.4c.054-.056.108-.111.164-.164l.027-.025h0a3.786,3.786,0,0,1,3.266-.946,3.791,3.791,0,0,1,3.015,2.918A3.8,3.8,0,0,1-24.885,10a3.788,3.788,0,0,1-2.8-1.239L-29.4,10.473a6.209,6.209,0,0,0,5.678,1.838A6.2,6.2,0,0,0-18.8,7.456,6.219,6.219,0,0,0-24.885,0" transform="translate(45.255 0)" fill="#8d4931"/>
      </g>
      <g id="Group_376" data-name="Group 376" transform="translate(29.432 0.448)">
        <path id="Path_527" data-name="Path 527" d="M-32.471-24.885a6.187,6.187,0,0,0-1.714-4.279h0l-.094-.095-.027-.026-3.6-3.6h0l-3.385-3.384-.05-.05-.1-.1a3.785,3.785,0,0,1-1.053-2.62,3.777,3.777,0,0,1,.857-2.4l.188-.188a3.785,3.785,0,0,1,2.762-1.208,3.8,3.8,0,0,1,3.783,3.795,3.785,3.785,0,0,1-1.238,2.8l.01.011,0,0,1.707,1.707a6.256,6.256,0,0,0,1.588-6.7,6.134,6.134,0,0,0-5.838-4.034H-38.7a6.2,6.2,0,0,0-4.706,2.163l-3.274,3.274h0l-3.4,3.4c-.053.056-.107.111-.163.164l-.027.025h0a3.788,3.788,0,0,1-3.263.947A3.793,3.793,0,0,1-56.551-38.2a3.8,3.8,0,0,1,3.71-4.614,3.785,3.785,0,0,1,2.8,1.239l1.707-1.707a6.21,6.21,0,0,0-5.675-1.839,6.2,6.2,0,0,0-4.922,4.85,6.22,6.22,0,0,0,6.086,7.462,6.188,6.188,0,0,0,4.279-1.714h0l.095-.095c.009-.009.018-.017.026-.027l3.581-3.581A6.2,6.2,0,0,0-43-34.57l3.527,3.527h0l3.4,3.4c.056.054.111.108.164.165l.025.025a3.793,3.793,0,0,1,.945,3.271,3.8,3.8,0,0,1-2.921,3.013,3.8,3.8,0,0,1-4.608-3.71,3.788,3.788,0,0,1,1.239-2.8L-42.944-29.4a6.206,6.206,0,0,0-1.838,5.676A6.2,6.2,0,0,0-39.93-18.8a6.22,6.22,0,0,0,7.458-6.086" transform="translate(59.051 45.255)" fill="#8d4931"/>
      </g>
      <g id="Group_377" data-name="Group 377" transform="translate(0.319 29.561)">
        <path id="Path_528" data-name="Path 528" d="M0-7.585A6.185,6.185,0,0,0,1.714-3.306h0l.094.1c.009.008.018.018.027.025l3.6,3.6h0L8.819,3.8c.017.016.034.033.05.05l.1.1a3.785,3.785,0,0,1,.2,5.018l-.188.188a3.785,3.785,0,1,1-5.307-5.39l-.01-.01,0,0L1.96,2.053A6.254,6.254,0,0,0,.37,8.744a6.134,6.134,0,0,0,5.839,4.04h.023a6.2,6.2,0,0,0,4.706-2.162l3.274-3.275v0l3.4-3.4c.054-.056.108-.11.165-.163l.026-.026h0a3.795,3.795,0,1,1-.231,5.344L15.86,10.816a6.21,6.21,0,1,0,.231-8.758h0L16,2.152l-.027.026L12.388,5.759A6.194,6.194,0,0,0,10.531,2.1L7-1.427h0l-3.4-3.4c-.056-.053-.111-.108-.164-.164l-.025-.026h0a3.791,3.791,0,0,1-.948-3.256,3.8,3.8,0,0,1,2.912-3.025A3.8,3.8,0,0,1,10-7.585a3.788,3.788,0,0,1-1.239,2.8l1.707,1.707A6.206,6.206,0,0,0,12.31-8.756a6.2,6.2,0,0,0-4.856-4.916A6.22,6.22,0,0,0,0-7.585" transform="translate(0 13.794)" fill="#8d4931"/>
      </g>
      <g id="Group_378" data-name="Group 378" transform="translate(29.433 29.561)">
        <path id="Path_529" data-name="Path 529" d="M-7.585-32.471a6.183,6.183,0,0,0,4.279-1.714h0l.095-.094.026-.027,3.6-3.6h0L3.8-41.29c.016-.017.033-.034.05-.05l.1-.1A3.781,3.781,0,0,1,6.577-42.5a3.78,3.78,0,0,1,2.4.857l.188.188a3.786,3.786,0,0,1,1.208,2.762,3.8,3.8,0,0,1-3.795,3.783,3.786,3.786,0,0,1-2.8-1.238l-.011.011a.006.006,0,0,0,0,0L2.053-34.431a6.255,6.255,0,0,0,6.693,1.59,6.134,6.134,0,0,0,4.039-5.839V-38.7a6.194,6.194,0,0,0-2.163-4.706L7.348-46.683h0l-3.4-3.4c-.056-.052-.11-.107-.164-.163l-.025-.026h0a3.788,3.788,0,0,1-.949-3.249,3.792,3.792,0,0,1,2.905-3.03,3.8,3.8,0,0,1,4.626,3.707,3.784,3.784,0,0,1-1.239,2.8l1.707,1.707A6.207,6.207,0,0,0,12.656-54a6.2,6.2,0,0,0-4.85-4.922A6.22,6.22,0,0,0,.344-52.841a6.186,6.186,0,0,0,1.714,4.279h0l.094.095.027.026,3.581,3.582A6.2,6.2,0,0,0,2.1-43l-3.527,3.527v0l-3.4,3.4q-.08.085-.164.164l-.027.025h0a3.791,3.791,0,0,1-3.268.945,3.793,3.793,0,0,1-3.014-2.92,3.8,3.8,0,0,1,3.71-4.608,3.788,3.788,0,0,1,2.8,1.238l1.707-1.706a6.21,6.21,0,0,0-5.674-1.839,6.2,6.2,0,0,0-4.922,4.85,6.219,6.219,0,0,0,6.086,7.461" transform="translate(13.794 59.05)" fill="#8d4931"/>
      </g>
    </g>
  </g>
</svg>
